ply
format ascii 1.0
comment VCGLIB generated
element vertex 8
property float x
property float y
property float z
property float nx
property float ny
property float nz
property uchar red
property uchar green
property uchar blue
property uchar alpha
element face 12
property list uchar int vertex_indices
end_header
-0.5 -0.5 -0.5 -0.5773503 -0.5773503 -0.5773503 255 255 10 255 
0.5 -0.5 -0.5 0.5773503 -0.5773503 -0.5773503 128 0 128 255 
-0.5 0.5 -0.5 -0.5773503 0.5773503 -0.5773503 33 255 6 255 
0.5 0.5 -0.5 0.5773503 0.5773503 -0.5773503 32 255 255 255 
-0.5 -0.5 0.5 -0.5773503 -0.5773503 0.5773503 252 2 255 255 
0.5 -0.5 0.5 0.5773503 -0.5773503 0.5773503 0 0 255 255 
-0.5 0.5 0.5 -0.5773503 0.5773503 0.5773503 253 128 8 255 
0.5 0.5 0.5 0.5773503 0.5773503 0.5773503 252 1 7 255 
3 2 1 0 
3 1 2 3 
3 4 2 0 
3 2 4 6 
3 1 4 0 
3 4 1 5 
3 6 5 7 
3 5 6 4 
3 3 6 7 
3 6 3 2 
3 5 3 7 
3 3 5 1 
